<?xml version="1.0" encoding="UTF-8"?>
<svg width="24px" height="24px" viewBox="0 0 24 24" stroke-width="1.5" fill="none" xmlns="http://www.w3.org/2000/svg" color="#000000">
  <path d="M12 14.5V16.5M7 10.0288C7.47142 10.0288 7.88424 9.79889 8.12229 9.41493L12.0223 3.31493C12.2603 2.93096 12.6731 2.70111 13.1445 2.70111C13.616 2.70111 14.0288 2.93096 14.2668 3.31493L18.1668 9.41493C18.4049 9.79889 18.8177 10.0288 19.2891 10.0288H19.8833C20.6122 10.0288 21.3279 10.2683 21.9557 10.7195C22.5835 11.1707 23.0001 11.8101 23.1429 12.5251L23.9833 16.5251C24.1261 17.24 24.0021 17.9861 23.6379 18.6208C23.2737 19.2555 22.6947 19.7358 22.0167 19.9751L15.3833 22.1751C14.5322 22.4703 13.6166 22.4703 12.7655 22.1751L6.13217 19.9751C5.45417 19.7358 4.87516 19.2555 4.51093 18.6208C4.14671 17.9861 4.02274 17.24 4.16551 16.5251L4.89884 12.5251C5.04161 11.8101 5.45824 11.1707 6.08603 10.7195C6.71382 10.2683 7.42957 10.0288 8.15839 10.0288H7Z" stroke="#000000" stroke-width="1.5" stroke-linecap="round" stroke-linejoin="round"/>
</svg>
